<mxfile host="app.diagrams.net" modified="2023-12-07T12:47:11.749Z" agent="Mozilla/5.0 (Windows NT 10.0; Win64; x64) AppleWebKit/537.36 (KHTML, like Gecko) Chrome/120.0.0.0 Safari/537.36" version="22.1.7" etag="YSvVpkx2vACj6JVnYMUB" type="device">
  <diagram id="_P70ImBS1ntffSAc9kok" name="Seite-1">
    <mxGraphModel dx="1434" dy="738" grid="1" gridSize="10" guides="1" tooltips="1" connect="1" arrows="1" fold="1" page="1" pageScale="1" pageWidth="2800" pageHeight="1800" math="0" shadow="0">
      <root>
        <mxCell id="0" />
        <mxCell id="1" parent="0" />
        <mxCell id="KCtc0PyfG8HMJlSSVIlV-1" value="&lt;font style=&quot;font-size: 25px;&quot;&gt;ER Diagramm - integrated&lt;/font&gt;" style="text;html=1;strokeColor=none;fillColor=none;align=center;verticalAlign=middle;whiteSpace=wrap;rounded=0;fontFamily=Open Sans;fontSource=https%3A%2F%2Ffonts.googleapis.com%2Fcss%3Ffamily%3DOpen%2BSans;fontStyle=1" parent="1" vertex="1">
          <mxGeometry x="160" y="120" width="400" height="30" as="geometry" />
        </mxCell>
        <mxCell id="KCtc0PyfG8HMJlSSVIlV-376" value="(0, *)" style="edgeStyle=none;rounded=0;orthogonalLoop=1;jettySize=auto;html=1;entryX=0;entryY=0.5;entryDx=0;entryDy=0;fontFamily=Open Sans;fontSource=https%3A%2F%2Ffonts.googleapis.com%2Fcss%3Ffamily%3DOpen%2BSans;fontSize=12;endArrow=none;endFill=0;" parent="1" source="KCtc0PyfG8HMJlSSVIlV-87" target="KCtc0PyfG8HMJlSSVIlV-374" edge="1">
          <mxGeometry relative="1" as="geometry" />
        </mxCell>
        <mxCell id="KCtc0PyfG8HMJlSSVIlV-87" value="Player" style="whiteSpace=wrap;html=1;fontFamily=Open Sans;fontSource=https%3A%2F%2Ffonts.googleapis.com%2Fcss%3Ffamily%3DOpen%2BSans;fontStyle=1;fillColor=#A5D7D2;" parent="1" vertex="1">
          <mxGeometry x="530" y="823.1300000000001" width="120" height="40" as="geometry" />
        </mxCell>
        <mxCell id="KCtc0PyfG8HMJlSSVIlV-100" style="edgeStyle=none;rounded=0;orthogonalLoop=1;jettySize=auto;html=1;startArrow=none;startFill=0;endArrow=none;endFill=0;entryX=0;entryY=0.5;entryDx=0;entryDy=0;exitX=1;exitY=0.5;exitDx=0;exitDy=0;fontFamily=Open Sans;fontSource=https%3A%2F%2Ffonts.googleapis.com%2Fcss%3Ffamily%3DOpen%2BSans;" parent="1" source="KCtc0PyfG8HMJlSSVIlV-101" target="KCtc0PyfG8HMJlSSVIlV-87" edge="1">
          <mxGeometry relative="1" as="geometry">
            <mxPoint x="524.9999999999877" y="841.8700000000001" as="targetPoint" />
          </mxGeometry>
        </mxCell>
        <mxCell id="KCtc0PyfG8HMJlSSVIlV-101" value="playerID" style="ellipse;whiteSpace=wrap;html=1;fontFamily=Open Sans;fontSource=https%3A%2F%2Ffonts.googleapis.com%2Fcss%3Ffamily%3DOpen%2BSans;fillColor=#1EA5A5;" parent="1" vertex="1">
          <mxGeometry x="360" y="688" width="80" height="40" as="geometry" />
        </mxCell>
        <mxCell id="KCtc0PyfG8HMJlSSVIlV-102" style="edgeStyle=none;rounded=0;orthogonalLoop=1;jettySize=auto;html=1;entryX=0;entryY=0.5;entryDx=0;entryDy=0;startArrow=none;startFill=0;endArrow=none;endFill=0;exitX=1;exitY=0.5;exitDx=0;exitDy=0;fontFamily=Open Sans;fontSource=https%3A%2F%2Ffonts.googleapis.com%2Fcss%3Ffamily%3DOpen%2BSans;" parent="1" source="KCtc0PyfG8HMJlSSVIlV-103" target="KCtc0PyfG8HMJlSSVIlV-87" edge="1">
          <mxGeometry relative="1" as="geometry">
            <mxPoint x="524.9999999999877" y="841.8700000000001" as="targetPoint" />
          </mxGeometry>
        </mxCell>
        <mxCell id="KCtc0PyfG8HMJlSSVIlV-103" value="&lt;u&gt;firstname&lt;/u&gt;" style="ellipse;whiteSpace=wrap;html=1;fontFamily=Open Sans;fontSource=https%3A%2F%2Ffonts.googleapis.com%2Fcss%3Ffamily%3DOpen%2BSans;fillColor=#1EA5A5;" parent="1" vertex="1">
          <mxGeometry x="360" y="748" width="80" height="40" as="geometry" />
        </mxCell>
        <mxCell id="KCtc0PyfG8HMJlSSVIlV-104" style="edgeStyle=none;rounded=0;orthogonalLoop=1;jettySize=auto;html=1;startArrow=none;startFill=0;endArrow=none;endFill=0;entryX=0;entryY=0.5;entryDx=0;entryDy=0;exitX=1;exitY=0.5;exitDx=0;exitDy=0;fontFamily=Open Sans;fontSource=https%3A%2F%2Ffonts.googleapis.com%2Fcss%3Ffamily%3DOpen%2BSans;" parent="1" source="KCtc0PyfG8HMJlSSVIlV-105" target="KCtc0PyfG8HMJlSSVIlV-87" edge="1">
          <mxGeometry relative="1" as="geometry">
            <mxPoint x="524.9999999999877" y="841.8700000000001" as="targetPoint" />
          </mxGeometry>
        </mxCell>
        <mxCell id="KCtc0PyfG8HMJlSSVIlV-105" value="&lt;u&gt;lastname&lt;/u&gt;" style="ellipse;whiteSpace=wrap;html=1;fontFamily=Open Sans;fontSource=https%3A%2F%2Ffonts.googleapis.com%2Fcss%3Ffamily%3DOpen%2BSans;fillColor=#1EA5A5;" parent="1" vertex="1">
          <mxGeometry x="360" y="809" width="80" height="40" as="geometry" />
        </mxCell>
        <mxCell id="KCtc0PyfG8HMJlSSVIlV-108" style="edgeStyle=none;rounded=0;orthogonalLoop=1;jettySize=auto;html=1;startArrow=none;startFill=0;endArrow=none;endFill=0;fontFamily=Open Sans;fontSource=https%3A%2F%2Ffonts.googleapis.com%2Fcss%3Ffamily%3DOpen%2BSans;entryX=0;entryY=0.5;entryDx=0;entryDy=0;" parent="1" source="KCtc0PyfG8HMJlSSVIlV-109" target="KCtc0PyfG8HMJlSSVIlV-87" edge="1">
          <mxGeometry relative="1" as="geometry">
            <mxPoint x="524.9999999999877" y="841.8700000000001" as="targetPoint" />
          </mxGeometry>
        </mxCell>
        <mxCell id="KCtc0PyfG8HMJlSSVIlV-109" value="&lt;u&gt;birthDate&lt;/u&gt;" style="ellipse;whiteSpace=wrap;html=1;fontFamily=Open Sans;fontSource=https%3A%2F%2Ffonts.googleapis.com%2Fcss%3Ffamily%3DOpen%2BSans;fillColor=#1EA5A5;" parent="1" vertex="1">
          <mxGeometry x="360" y="869" width="80" height="40" as="geometry" />
        </mxCell>
        <mxCell id="KCtc0PyfG8HMJlSSVIlV-112" style="edgeStyle=none;rounded=0;orthogonalLoop=1;jettySize=auto;html=1;startArrow=none;startFill=0;endArrow=none;endFill=0;exitX=1;exitY=0.5;exitDx=0;exitDy=0;entryX=0;entryY=0.5;entryDx=0;entryDy=0;fontFamily=Open Sans;fontSource=https%3A%2F%2Ffonts.googleapis.com%2Fcss%3Ffamily%3DOpen%2BSans;" parent="1" source="KCtc0PyfG8HMJlSSVIlV-113" target="KCtc0PyfG8HMJlSSVIlV-87" edge="1">
          <mxGeometry relative="1" as="geometry">
            <mxPoint x="524.9999999999877" y="841.8700000000001" as="targetPoint" />
          </mxGeometry>
        </mxCell>
        <mxCell id="KCtc0PyfG8HMJlSSVIlV-113" value="heightCm" style="ellipse;whiteSpace=wrap;html=1;fontFamily=Open Sans;fontSource=https%3A%2F%2Ffonts.googleapis.com%2Fcss%3Ffamily%3DOpen%2BSans;fillColor=#1EA5A5;" parent="1" vertex="1">
          <mxGeometry x="360" y="929" width="80" height="40" as="geometry" />
        </mxCell>
        <mxCell id="KCtc0PyfG8HMJlSSVIlV-114" style="edgeStyle=none;rounded=0;orthogonalLoop=1;jettySize=auto;html=1;startArrow=none;startFill=0;endArrow=none;endFill=0;exitX=1;exitY=0.5;exitDx=0;exitDy=0;entryX=0;entryY=0.5;entryDx=0;entryDy=0;fontFamily=Open Sans;fontSource=https%3A%2F%2Ffonts.googleapis.com%2Fcss%3Ffamily%3DOpen%2BSans;" parent="1" source="KCtc0PyfG8HMJlSSVIlV-115" target="KCtc0PyfG8HMJlSSVIlV-87" edge="1">
          <mxGeometry relative="1" as="geometry">
            <mxPoint x="524.9999999999877" y="841.8700000000001" as="targetPoint" />
          </mxGeometry>
        </mxCell>
        <mxCell id="KCtc0PyfG8HMJlSSVIlV-115" value="nationality" style="ellipse;whiteSpace=wrap;html=1;fontFamily=Open Sans;fontSource=https%3A%2F%2Ffonts.googleapis.com%2Fcss%3Ffamily%3DOpen%2BSans;fillColor=#1EA5A5;" parent="1" vertex="1">
          <mxGeometry x="360" y="1050" width="80" height="40" as="geometry" />
        </mxCell>
        <mxCell id="KCtc0PyfG8HMJlSSVIlV-238" style="edgeStyle=none;rounded=0;orthogonalLoop=1;jettySize=auto;html=1;entryX=0;entryY=0.5;entryDx=0;entryDy=0;startArrow=none;startFill=0;endArrow=none;endFill=0;exitX=1;exitY=0.5;exitDx=0;exitDy=0;fontFamily=Open Sans;fontSource=https%3A%2F%2Ffonts.googleapis.com%2Fcss%3Ffamily%3DOpen%2BSans;" parent="1" source="KCtc0PyfG8HMJlSSVIlV-239" target="KCtc0PyfG8HMJlSSVIlV-87" edge="1">
          <mxGeometry relative="1" as="geometry">
            <mxPoint x="524.9999999999877" y="841.8700000000001" as="targetPoint" />
          </mxGeometry>
        </mxCell>
        <mxCell id="KCtc0PyfG8HMJlSSVIlV-239" value="weightKg" style="ellipse;whiteSpace=wrap;html=1;fontFamily=Open Sans;fontSource=https%3A%2F%2Ffonts.googleapis.com%2Fcss%3Ffamily%3DOpen%2BSans;fillColor=#1EA5A5;" parent="1" vertex="1">
          <mxGeometry x="360" y="990" width="80" height="40" as="geometry" />
        </mxCell>
        <mxCell id="KCtc0PyfG8HMJlSSVIlV-276" value="(1, *)" style="rounded=0;orthogonalLoop=1;jettySize=auto;html=1;entryX=0.5;entryY=1;entryDx=0;entryDy=0;endArrow=none;endFill=0;fontFamily=Open Sans;fontSource=https%3A%2F%2Ffonts.googleapis.com%2Fcss%3Ffamily%3DOpen%2BSans;fontSize=12;" parent="1" source="KCtc0PyfG8HMJlSSVIlV-275" target="KCtc0PyfG8HMJlSSVIlV-3" edge="1">
          <mxGeometry relative="1" as="geometry" />
        </mxCell>
        <mxCell id="KCtc0PyfG8HMJlSSVIlV-277" value="(0, *)" style="edgeStyle=none;rounded=0;orthogonalLoop=1;jettySize=auto;html=1;entryX=0.5;entryY=0;entryDx=0;entryDy=0;fontFamily=Open Sans;fontSource=https%3A%2F%2Ffonts.googleapis.com%2Fcss%3Ffamily%3DOpen%2BSans;endArrow=none;endFill=0;fontSize=12;" parent="1" source="KCtc0PyfG8HMJlSSVIlV-275" target="KCtc0PyfG8HMJlSSVIlV-87" edge="1">
          <mxGeometry relative="1" as="geometry" />
        </mxCell>
        <mxCell id="KCtc0PyfG8HMJlSSVIlV-275" value="playsIn" style="rhombus;whiteSpace=wrap;html=1;fillColor=#A5D7D2;fontFamily=Open Sans;fontSource=https%3A%2F%2Ffonts.googleapis.com%2Fcss%3Ffamily%3DOpen%2BSans;" parent="1" vertex="1">
          <mxGeometry x="530" y="580.0000000000001" width="120" height="70" as="geometry" />
        </mxCell>
        <mxCell id="KCtc0PyfG8HMJlSSVIlV-3" value="&lt;font data-font-src=&quot;https://fonts.googleapis.com/css?family=Open+Sans&quot; face=&quot;Open Sans&quot;&gt;&lt;b&gt;Season&lt;/b&gt;&lt;/font&gt;" style="rounded=0;whiteSpace=wrap;html=1;fillColor=#a5d7d2;" parent="1" vertex="1">
          <mxGeometry x="530" y="370" width="120" height="40" as="geometry" />
        </mxCell>
        <mxCell id="KCtc0PyfG8HMJlSSVIlV-4" value="&lt;font data-font-src=&quot;https://fonts.googleapis.com/css?family=Open+Sans&quot; face=&quot;Open Sans&quot;&gt;leagueName&lt;/font&gt;" style="ellipse;whiteSpace=wrap;html=1;fillColor=#1EA5A5;" parent="1" vertex="1">
          <mxGeometry x="373" y="280" width="80" height="40" as="geometry" />
        </mxCell>
        <mxCell id="KCtc0PyfG8HMJlSSVIlV-5" style="edgeStyle=none;rounded=0;orthogonalLoop=1;jettySize=auto;html=1;entryX=0.5;entryY=1;entryDx=0;entryDy=0;fontFamily=Open Sans;fontSource=https%3A%2F%2Ffonts.googleapis.com%2Fcss%3Ffamily%3DOpen%2BSans;endArrow=none;endFill=0;exitX=0.5;exitY=0;exitDx=0;exitDy=0;" parent="1" source="KCtc0PyfG8HMJlSSVIlV-3" target="KCtc0PyfG8HMJlSSVIlV-4" edge="1">
          <mxGeometry relative="1" as="geometry" />
        </mxCell>
        <mxCell id="KCtc0PyfG8HMJlSSVIlV-6" value="&lt;font data-font-src=&quot;https://fonts.googleapis.com/css?family=Open+Sans&quot; face=&quot;Open Sans&quot;&gt;leagueType&lt;/font&gt;" style="ellipse;whiteSpace=wrap;html=1;fillColor=#1EA5A5;" parent="1" vertex="1">
          <mxGeometry x="461" y="280" width="80" height="40" as="geometry" />
        </mxCell>
        <mxCell id="KCtc0PyfG8HMJlSSVIlV-7" style="edgeStyle=none;rounded=0;orthogonalLoop=1;jettySize=auto;html=1;entryX=0.5;entryY=1;entryDx=0;entryDy=0;fontFamily=Open Sans;fontSource=https%3A%2F%2Ffonts.googleapis.com%2Fcss%3Ffamily%3DOpen%2BSans;endArrow=none;endFill=0;exitX=0.5;exitY=0;exitDx=0;exitDy=0;" parent="1" source="KCtc0PyfG8HMJlSSVIlV-3" target="KCtc0PyfG8HMJlSSVIlV-6" edge="1">
          <mxGeometry relative="1" as="geometry" />
        </mxCell>
        <mxCell id="KCtc0PyfG8HMJlSSVIlV-8" value="leagueCounty" style="ellipse;whiteSpace=wrap;html=1;fillColor=#1EA5A5;fontFamily=Open Sans;fontSource=https%3A%2F%2Ffonts.googleapis.com%2Fcss%3Ffamily%3DOpen%2BSans;" parent="1" vertex="1">
          <mxGeometry x="550" y="280" width="80" height="40" as="geometry" />
        </mxCell>
        <mxCell id="KCtc0PyfG8HMJlSSVIlV-9" style="edgeStyle=none;rounded=0;orthogonalLoop=1;jettySize=auto;html=1;entryX=0.5;entryY=1;entryDx=0;entryDy=0;fontFamily=Open Sans;fontSource=https%3A%2F%2Ffonts.googleapis.com%2Fcss%3Ffamily%3DOpen%2BSans;endArrow=none;endFill=0;exitX=0.5;exitY=0;exitDx=0;exitDy=0;" parent="1" source="KCtc0PyfG8HMJlSSVIlV-3" target="KCtc0PyfG8HMJlSSVIlV-8" edge="1">
          <mxGeometry relative="1" as="geometry" />
        </mxCell>
        <mxCell id="KCtc0PyfG8HMJlSSVIlV-12" value="&lt;u&gt;&lt;font data-font-src=&quot;https://fonts.googleapis.com/css?family=Open+Sans&quot; face=&quot;Open Sans&quot;&gt;seasonID&lt;/font&gt;&lt;/u&gt;" style="ellipse;whiteSpace=wrap;html=1;fillColor=#1EA5A5;" parent="1" vertex="1">
          <mxGeometry x="284" y="280" width="80" height="40" as="geometry" />
        </mxCell>
        <mxCell id="KCtc0PyfG8HMJlSSVIlV-13" style="rounded=0;orthogonalLoop=1;jettySize=auto;html=1;entryX=0.5;entryY=1;entryDx=0;entryDy=0;fontFamily=Open Sans;fontSource=https%3A%2F%2Ffonts.googleapis.com%2Fcss%3Ffamily%3DOpen%2BSans;exitX=0.5;exitY=0;exitDx=0;exitDy=0;endArrow=none;endFill=0;" parent="1" source="KCtc0PyfG8HMJlSSVIlV-3" target="KCtc0PyfG8HMJlSSVIlV-12" edge="1">
          <mxGeometry relative="1" as="geometry" />
        </mxCell>
        <mxCell id="KCtc0PyfG8HMJlSSVIlV-14" value="&lt;font data-font-src=&quot;https://fonts.googleapis.com/css?family=Open+Sans&quot; face=&quot;Open Sans&quot;&gt;seasonYear&lt;/font&gt;" style="ellipse;whiteSpace=wrap;html=1;fillColor=#1EA5A5;" parent="1" vertex="1">
          <mxGeometry x="639" y="280" width="80" height="40" as="geometry" />
        </mxCell>
        <mxCell id="KCtc0PyfG8HMJlSSVIlV-15" style="edgeStyle=none;rounded=0;orthogonalLoop=1;jettySize=auto;html=1;entryX=0.5;entryY=1;entryDx=0;entryDy=0;fontFamily=Open Sans;fontSource=https%3A%2F%2Ffonts.googleapis.com%2Fcss%3Ffamily%3DOpen%2BSans;fontSize=17;endArrow=none;endFill=0;exitX=0.5;exitY=0;exitDx=0;exitDy=0;" parent="1" source="KCtc0PyfG8HMJlSSVIlV-3" target="KCtc0PyfG8HMJlSSVIlV-14" edge="1">
          <mxGeometry relative="1" as="geometry" />
        </mxCell>
        <mxCell id="KCtc0PyfG8HMJlSSVIlV-16" value="&lt;font data-font-src=&quot;https://fonts.googleapis.com/css?family=Open+Sans&quot; face=&quot;Open Sans&quot;&gt;startDate&lt;/font&gt;" style="ellipse;whiteSpace=wrap;html=1;fillColor=#1EA5A5;" parent="1" vertex="1">
          <mxGeometry x="727" y="280" width="80" height="40" as="geometry" />
        </mxCell>
        <mxCell id="KCtc0PyfG8HMJlSSVIlV-17" style="edgeStyle=none;rounded=0;orthogonalLoop=1;jettySize=auto;html=1;entryX=0.5;entryY=1;entryDx=0;entryDy=0;fontFamily=Open Sans;fontSource=https%3A%2F%2Ffonts.googleapis.com%2Fcss%3Ffamily%3DOpen%2BSans;fontSize=17;endArrow=none;endFill=0;exitX=0.5;exitY=0;exitDx=0;exitDy=0;" parent="1" source="KCtc0PyfG8HMJlSSVIlV-3" target="KCtc0PyfG8HMJlSSVIlV-16" edge="1">
          <mxGeometry relative="1" as="geometry" />
        </mxCell>
        <mxCell id="KCtc0PyfG8HMJlSSVIlV-18" value="&lt;font face=&quot;Open Sans&quot;&gt;endDate&lt;/font&gt;" style="ellipse;whiteSpace=wrap;html=1;fillColor=#1EA5A5;" parent="1" vertex="1">
          <mxGeometry x="816" y="280" width="80" height="40" as="geometry" />
        </mxCell>
        <mxCell id="KCtc0PyfG8HMJlSSVIlV-19" style="edgeStyle=none;rounded=0;orthogonalLoop=1;jettySize=auto;html=1;entryX=0.5;entryY=1;entryDx=0;entryDy=0;fontFamily=Open Sans;fontSource=https%3A%2F%2Ffonts.googleapis.com%2Fcss%3Ffamily%3DOpen%2BSans;fontSize=17;endArrow=none;endFill=0;exitX=0.5;exitY=0;exitDx=0;exitDy=0;" parent="1" source="KCtc0PyfG8HMJlSSVIlV-3" target="KCtc0PyfG8HMJlSSVIlV-18" edge="1">
          <mxGeometry relative="1" as="geometry" />
        </mxCell>
        <mxCell id="KCtc0PyfG8HMJlSSVIlV-279" value="(0, *)" style="edgeStyle=none;rounded=0;orthogonalLoop=1;jettySize=auto;html=1;entryX=0.5;entryY=1;entryDx=0;entryDy=0;fontFamily=Open Sans;fontSource=https%3A%2F%2Ffonts.googleapis.com%2Fcss%3Ffamily%3DOpen%2BSans;fontSize=12;endArrow=none;endFill=0;" parent="1" source="KCtc0PyfG8HMJlSSVIlV-278" target="KCtc0PyfG8HMJlSSVIlV-87" edge="1">
          <mxGeometry relative="1" as="geometry" />
        </mxCell>
        <mxCell id="KCtc0PyfG8HMJlSSVIlV-372" style="edgeStyle=none;rounded=0;orthogonalLoop=1;jettySize=auto;html=1;entryX=0;entryY=0.5;entryDx=0;entryDy=0;fontFamily=Open Sans;fontSource=https%3A%2F%2Ffonts.googleapis.com%2Fcss%3Ffamily%3DOpen%2BSans;fontSize=12;endArrow=none;endFill=0;" parent="1" source="KCtc0PyfG8HMJlSSVIlV-278" target="KCtc0PyfG8HMJlSSVIlV-281" edge="1">
          <mxGeometry relative="1" as="geometry" />
        </mxCell>
        <mxCell id="KCtc0PyfG8HMJlSSVIlV-373" value="(1, 1)" style="edgeLabel;html=1;align=center;verticalAlign=middle;resizable=0;points=[];fontSize=12;fontFamily=Open Sans;" parent="KCtc0PyfG8HMJlSSVIlV-372" vertex="1" connectable="0">
          <mxGeometry x="0.1625" y="-3" relative="1" as="geometry">
            <mxPoint x="-1" as="offset" />
          </mxGeometry>
        </mxCell>
        <mxCell id="KCtc0PyfG8HMJlSSVIlV-278" value="has" style="rhombus;whiteSpace=wrap;html=1;fillColor=#A5D7D2;fontFamily=Open Sans;fontSource=https%3A%2F%2Ffonts.googleapis.com%2Fcss%3Ffamily%3DOpen%2BSans;" parent="1" vertex="1">
          <mxGeometry x="530" y="1170" width="120" height="70" as="geometry" />
        </mxCell>
        <mxCell id="KCtc0PyfG8HMJlSSVIlV-369" style="edgeStyle=none;rounded=0;orthogonalLoop=1;jettySize=auto;html=1;entryX=0.5;entryY=1;entryDx=0;entryDy=0;fontFamily=Open Sans;fontSource=https%3A%2F%2Ffonts.googleapis.com%2Fcss%3Ffamily%3DOpen%2BSans;fontSize=12;endArrow=none;endFill=0;exitX=0.5;exitY=0;exitDx=0;exitDy=0;" parent="1" source="KCtc0PyfG8HMJlSSVIlV-281" target="KCtc0PyfG8HMJlSSVIlV-299" edge="1">
          <mxGeometry relative="1" as="geometry" />
        </mxCell>
        <mxCell id="KCtc0PyfG8HMJlSSVIlV-281" value="&lt;b&gt;Statistics&lt;/b&gt;" style="whiteSpace=wrap;html=1;fontFamily=Open Sans;fontSource=https%3A%2F%2Ffonts.googleapis.com%2Fcss%3Ffamily%3DOpen%2BSans;fillColor=#A5D7D2;" parent="1" vertex="1">
          <mxGeometry x="936.5" y="1184.5000000000002" width="120" height="40" as="geometry" />
        </mxCell>
        <mxCell id="KCtc0PyfG8HMJlSSVIlV-282" style="edgeStyle=none;rounded=0;orthogonalLoop=1;jettySize=auto;html=1;entryX=0.5;entryY=1;entryDx=0;entryDy=0;endArrow=none;endFill=0;exitX=1;exitY=0.5;exitDx=0;exitDy=0;" parent="1" source="KCtc0PyfG8HMJlSSVIlV-281" target="KCtc0PyfG8HMJlSSVIlV-332" edge="1">
          <mxGeometry relative="1" as="geometry">
            <mxPoint x="1237.2499999999973" y="1031.67" as="sourcePoint" />
          </mxGeometry>
        </mxCell>
        <mxCell id="KCtc0PyfG8HMJlSSVIlV-283" style="edgeStyle=none;rounded=0;orthogonalLoop=1;jettySize=auto;html=1;entryX=0.5;entryY=1;entryDx=0;entryDy=0;endArrow=none;endFill=0;exitX=1;exitY=0.5;exitDx=0;exitDy=0;" parent="1" source="KCtc0PyfG8HMJlSSVIlV-281" target="KCtc0PyfG8HMJlSSVIlV-333" edge="1">
          <mxGeometry relative="1" as="geometry">
            <mxPoint x="1237.2499999999973" y="1031.67" as="sourcePoint" />
          </mxGeometry>
        </mxCell>
        <mxCell id="KCtc0PyfG8HMJlSSVIlV-284" style="edgeStyle=none;rounded=0;orthogonalLoop=1;jettySize=auto;html=1;entryX=0.5;entryY=1;entryDx=0;entryDy=0;endArrow=none;endFill=0;exitX=1;exitY=0.5;exitDx=0;exitDy=0;" parent="1" source="KCtc0PyfG8HMJlSSVIlV-281" target="KCtc0PyfG8HMJlSSVIlV-334" edge="1">
          <mxGeometry relative="1" as="geometry">
            <mxPoint x="1237.2499999999973" y="1031.67" as="sourcePoint" />
          </mxGeometry>
        </mxCell>
        <mxCell id="KCtc0PyfG8HMJlSSVIlV-285" style="edgeStyle=none;rounded=0;orthogonalLoop=1;jettySize=auto;html=1;entryX=0.5;entryY=1;entryDx=0;entryDy=0;endArrow=none;endFill=0;exitX=1;exitY=0.5;exitDx=0;exitDy=0;" parent="1" source="KCtc0PyfG8HMJlSSVIlV-281" target="KCtc0PyfG8HMJlSSVIlV-335" edge="1">
          <mxGeometry relative="1" as="geometry">
            <mxPoint x="1237.2499999999973" y="1031.67" as="sourcePoint" />
          </mxGeometry>
        </mxCell>
        <mxCell id="KCtc0PyfG8HMJlSSVIlV-286" style="edgeStyle=none;rounded=0;orthogonalLoop=1;jettySize=auto;html=1;entryX=0;entryY=0.5;entryDx=0;entryDy=0;endArrow=none;endFill=0;exitX=0.5;exitY=1;exitDx=0;exitDy=0;" parent="1" source="KCtc0PyfG8HMJlSSVIlV-281" target="KCtc0PyfG8HMJlSSVIlV-345" edge="1">
          <mxGeometry relative="1" as="geometry">
            <mxPoint x="1234.4999999999973" y="1360.6200000000001" as="sourcePoint" />
          </mxGeometry>
        </mxCell>
        <mxCell id="KCtc0PyfG8HMJlSSVIlV-287" style="edgeStyle=none;rounded=0;orthogonalLoop=1;jettySize=auto;html=1;entryX=0;entryY=0.5;entryDx=0;entryDy=0;endArrow=none;endFill=0;exitX=0.5;exitY=1;exitDx=0;exitDy=0;" parent="1" source="KCtc0PyfG8HMJlSSVIlV-281" target="KCtc0PyfG8HMJlSSVIlV-344" edge="1">
          <mxGeometry relative="1" as="geometry">
            <mxPoint x="1234.4999999999973" y="1360.6200000000001" as="sourcePoint" />
          </mxGeometry>
        </mxCell>
        <mxCell id="KCtc0PyfG8HMJlSSVIlV-288" style="edgeStyle=none;rounded=0;orthogonalLoop=1;jettySize=auto;html=1;entryX=1;entryY=0.5;entryDx=0;entryDy=0;endArrow=none;endFill=0;exitX=0.5;exitY=1;exitDx=0;exitDy=0;" parent="1" source="KCtc0PyfG8HMJlSSVIlV-281" target="KCtc0PyfG8HMJlSSVIlV-336" edge="1">
          <mxGeometry relative="1" as="geometry">
            <mxPoint x="1209.5" y="1416.97" as="sourcePoint" />
          </mxGeometry>
        </mxCell>
        <mxCell id="KCtc0PyfG8HMJlSSVIlV-289" style="edgeStyle=none;rounded=0;orthogonalLoop=1;jettySize=auto;html=1;entryX=1;entryY=0.5;entryDx=0;entryDy=0;endArrow=none;endFill=0;exitX=0.5;exitY=1;exitDx=0;exitDy=0;" parent="1" source="KCtc0PyfG8HMJlSSVIlV-281" target="KCtc0PyfG8HMJlSSVIlV-337" edge="1">
          <mxGeometry relative="1" as="geometry">
            <mxPoint x="1209.5" y="1416.97" as="sourcePoint" />
          </mxGeometry>
        </mxCell>
        <mxCell id="KCtc0PyfG8HMJlSSVIlV-290" style="edgeStyle=none;rounded=0;orthogonalLoop=1;jettySize=auto;html=1;entryX=1;entryY=0.5;entryDx=0;entryDy=0;endArrow=none;endFill=0;exitX=0.5;exitY=1;exitDx=0;exitDy=0;" parent="1" source="KCtc0PyfG8HMJlSSVIlV-281" target="KCtc0PyfG8HMJlSSVIlV-338" edge="1">
          <mxGeometry relative="1" as="geometry">
            <mxPoint x="1208.75" y="1416.97" as="sourcePoint" />
          </mxGeometry>
        </mxCell>
        <mxCell id="KCtc0PyfG8HMJlSSVIlV-291" style="edgeStyle=none;rounded=0;orthogonalLoop=1;jettySize=auto;html=1;exitX=0.5;exitY=1;exitDx=0;exitDy=0;entryX=1;entryY=0.5;entryDx=0;entryDy=0;endArrow=none;endFill=0;" parent="1" source="KCtc0PyfG8HMJlSSVIlV-281" target="KCtc0PyfG8HMJlSSVIlV-356" edge="1">
          <mxGeometry relative="1" as="geometry">
            <mxPoint x="1057" y="1252.27" as="sourcePoint" />
          </mxGeometry>
        </mxCell>
        <mxCell id="KCtc0PyfG8HMJlSSVIlV-292" style="edgeStyle=none;rounded=0;orthogonalLoop=1;jettySize=auto;html=1;entryX=1;entryY=0.5;entryDx=0;entryDy=0;endArrow=none;endFill=0;exitX=0.5;exitY=1;exitDx=0;exitDy=0;" parent="1" source="KCtc0PyfG8HMJlSSVIlV-281" target="KCtc0PyfG8HMJlSSVIlV-357" edge="1">
          <mxGeometry relative="1" as="geometry">
            <mxPoint x="1057" y="1252.27" as="sourcePoint" />
          </mxGeometry>
        </mxCell>
        <mxCell id="KCtc0PyfG8HMJlSSVIlV-293" style="edgeStyle=none;rounded=0;orthogonalLoop=1;jettySize=auto;html=1;entryX=1;entryY=0.5;entryDx=0;entryDy=0;endArrow=none;endFill=0;exitX=0.5;exitY=1;exitDx=0;exitDy=0;" parent="1" source="KCtc0PyfG8HMJlSSVIlV-281" target="KCtc0PyfG8HMJlSSVIlV-358" edge="1">
          <mxGeometry relative="1" as="geometry">
            <mxPoint x="1057" y="1252.27" as="sourcePoint" />
          </mxGeometry>
        </mxCell>
        <mxCell id="KCtc0PyfG8HMJlSSVIlV-294" style="edgeStyle=none;rounded=0;orthogonalLoop=1;jettySize=auto;html=1;entryX=1;entryY=0.5;entryDx=0;entryDy=0;endArrow=none;endFill=0;exitX=0.5;exitY=1;exitDx=0;exitDy=0;" parent="1" source="KCtc0PyfG8HMJlSSVIlV-281" target="KCtc0PyfG8HMJlSSVIlV-355" edge="1">
          <mxGeometry relative="1" as="geometry">
            <mxPoint x="1057" y="1252.27" as="sourcePoint" />
          </mxGeometry>
        </mxCell>
        <mxCell id="KCtc0PyfG8HMJlSSVIlV-295" style="edgeStyle=none;rounded=0;orthogonalLoop=1;jettySize=auto;html=1;entryX=1;entryY=0.5;entryDx=0;entryDy=0;endArrow=none;endFill=0;exitX=0.5;exitY=1;exitDx=0;exitDy=0;" parent="1" source="KCtc0PyfG8HMJlSSVIlV-281" target="KCtc0PyfG8HMJlSSVIlV-354" edge="1">
          <mxGeometry relative="1" as="geometry">
            <mxPoint x="1057" y="1252.27" as="sourcePoint" />
          </mxGeometry>
        </mxCell>
        <mxCell id="KCtc0PyfG8HMJlSSVIlV-371" style="edgeStyle=none;rounded=0;orthogonalLoop=1;jettySize=auto;html=1;entryX=0.5;entryY=0;entryDx=0;entryDy=0;fontFamily=Open Sans;fontSource=https%3A%2F%2Ffonts.googleapis.com%2Fcss%3Ffamily%3DOpen%2BSans;fontSize=12;endArrow=none;endFill=0;" parent="1" source="KCtc0PyfG8HMJlSSVIlV-297" target="KCtc0PyfG8HMJlSSVIlV-281" edge="1">
          <mxGeometry relative="1" as="geometry" />
        </mxCell>
        <mxCell id="KCtc0PyfG8HMJlSSVIlV-297" value="&lt;u&gt;seasonID&lt;/u&gt;" style="ellipse;whiteSpace=wrap;html=1;fontFamily=Open Sans;fontSource=https%3A%2F%2Ffonts.googleapis.com%2Fcss%3Ffamily%3DOpen%2BSans;fillColor=#1EA5A5;" parent="1" vertex="1">
          <mxGeometry x="976.5" y="1010" width="80" height="40" as="geometry" />
        </mxCell>
        <mxCell id="KCtc0PyfG8HMJlSSVIlV-299" value="&lt;u&gt;teamID&lt;/u&gt;" style="ellipse;whiteSpace=wrap;html=1;fontFamily=Open Sans;fontSource=https%3A%2F%2Ffonts.googleapis.com%2Fcss%3Ffamily%3DOpen%2BSans;fillColor=#1EA5A5;" parent="1" vertex="1">
          <mxGeometry x="780" y="1010" width="80" height="40" as="geometry" />
        </mxCell>
        <mxCell id="KCtc0PyfG8HMJlSSVIlV-300" style="edgeStyle=none;rounded=0;orthogonalLoop=1;jettySize=auto;html=1;entryX=0;entryY=0.5;entryDx=0;entryDy=0;endArrow=none;endFill=0;exitX=0.5;exitY=1;exitDx=0;exitDy=0;" parent="1" source="KCtc0PyfG8HMJlSSVIlV-281" target="KCtc0PyfG8HMJlSSVIlV-361" edge="1">
          <mxGeometry relative="1" as="geometry">
            <mxPoint x="1236.0000000001228" y="1304.695" as="sourcePoint" />
          </mxGeometry>
        </mxCell>
        <mxCell id="KCtc0PyfG8HMJlSSVIlV-301" style="edgeStyle=none;rounded=0;orthogonalLoop=1;jettySize=auto;html=1;entryX=0;entryY=0.5;entryDx=0;entryDy=0;endArrow=none;endFill=0;exitX=0.5;exitY=1;exitDx=0;exitDy=0;" parent="1" source="KCtc0PyfG8HMJlSSVIlV-281" target="KCtc0PyfG8HMJlSSVIlV-360" edge="1">
          <mxGeometry relative="1" as="geometry">
            <mxPoint x="1235.997238591548" y="1304.9086516118934" as="sourcePoint" />
          </mxGeometry>
        </mxCell>
        <mxCell id="KCtc0PyfG8HMJlSSVIlV-302" style="edgeStyle=none;rounded=0;orthogonalLoop=1;jettySize=auto;html=1;entryX=0;entryY=0.5;entryDx=0;entryDy=0;endArrow=none;endFill=0;exitX=0.5;exitY=1;exitDx=0;exitDy=0;" parent="1" source="KCtc0PyfG8HMJlSSVIlV-281" target="KCtc0PyfG8HMJlSSVIlV-359" edge="1">
          <mxGeometry relative="1" as="geometry">
            <mxPoint x="1236.0000000001228" y="1304.695" as="sourcePoint" />
          </mxGeometry>
        </mxCell>
        <mxCell id="KCtc0PyfG8HMJlSSVIlV-303" style="edgeStyle=none;rounded=0;orthogonalLoop=1;jettySize=auto;html=1;entryX=0;entryY=0.5;entryDx=0;entryDy=0;endArrow=none;endFill=0;exitX=0.5;exitY=1;exitDx=0;exitDy=0;" parent="1" source="KCtc0PyfG8HMJlSSVIlV-281" target="KCtc0PyfG8HMJlSSVIlV-346" edge="1">
          <mxGeometry relative="1" as="geometry">
            <mxPoint x="1237.2499999999955" y="1151.045" as="sourcePoint" />
          </mxGeometry>
        </mxCell>
        <mxCell id="KCtc0PyfG8HMJlSSVIlV-304" style="edgeStyle=none;rounded=0;orthogonalLoop=1;jettySize=auto;html=1;entryX=0;entryY=0.5;entryDx=0;entryDy=0;endArrow=none;endFill=0;exitX=0.5;exitY=1;exitDx=0;exitDy=0;" parent="1" source="KCtc0PyfG8HMJlSSVIlV-281" target="KCtc0PyfG8HMJlSSVIlV-347" edge="1">
          <mxGeometry relative="1" as="geometry">
            <mxPoint x="1237.2499999999955" y="1151.045" as="sourcePoint" />
          </mxGeometry>
        </mxCell>
        <mxCell id="KCtc0PyfG8HMJlSSVIlV-305" style="edgeStyle=none;rounded=0;orthogonalLoop=1;jettySize=auto;html=1;entryX=0;entryY=0.5;entryDx=0;entryDy=0;endArrow=none;endFill=0;exitX=0.5;exitY=1;exitDx=0;exitDy=0;" parent="1" source="KCtc0PyfG8HMJlSSVIlV-281" target="KCtc0PyfG8HMJlSSVIlV-348" edge="1">
          <mxGeometry relative="1" as="geometry">
            <mxPoint x="1237.2499999999955" y="1151.045" as="sourcePoint" />
          </mxGeometry>
        </mxCell>
        <mxCell id="KCtc0PyfG8HMJlSSVIlV-306" style="edgeStyle=none;rounded=0;orthogonalLoop=1;jettySize=auto;html=1;entryX=0.429;entryY=-0.064;entryDx=0;entryDy=0;endArrow=none;endFill=0;exitX=1;exitY=0.5;exitDx=0;exitDy=0;entryPerimeter=0;" parent="1" source="KCtc0PyfG8HMJlSSVIlV-281" target="KCtc0PyfG8HMJlSSVIlV-350" edge="1">
          <mxGeometry relative="1" as="geometry">
            <mxPoint x="1237.2499999999973" y="1111.67" as="sourcePoint" />
          </mxGeometry>
        </mxCell>
        <mxCell id="KCtc0PyfG8HMJlSSVIlV-307" style="edgeStyle=none;rounded=0;orthogonalLoop=1;jettySize=auto;html=1;entryX=0.5;entryY=0;entryDx=0;entryDy=0;endArrow=none;endFill=0;exitX=1;exitY=0.5;exitDx=0;exitDy=0;" parent="1" source="KCtc0PyfG8HMJlSSVIlV-281" target="KCtc0PyfG8HMJlSSVIlV-349" edge="1">
          <mxGeometry relative="1" as="geometry">
            <mxPoint x="1237.2499999999973" y="1111.67" as="sourcePoint" />
          </mxGeometry>
        </mxCell>
        <mxCell id="KCtc0PyfG8HMJlSSVIlV-308" style="edgeStyle=none;rounded=0;orthogonalLoop=1;jettySize=auto;html=1;entryX=0.5;entryY=0;entryDx=0;entryDy=0;endArrow=none;endFill=0;exitX=1;exitY=0.5;exitDx=0;exitDy=0;" parent="1" source="KCtc0PyfG8HMJlSSVIlV-281" target="KCtc0PyfG8HMJlSSVIlV-351" edge="1">
          <mxGeometry relative="1" as="geometry">
            <mxPoint x="1237.2499999999973" y="1111.67" as="sourcePoint" />
          </mxGeometry>
        </mxCell>
        <mxCell id="KCtc0PyfG8HMJlSSVIlV-309" style="edgeStyle=none;rounded=0;orthogonalLoop=1;jettySize=auto;html=1;entryX=0;entryY=0.5;entryDx=0;entryDy=0;endArrow=none;endFill=0;exitX=0.5;exitY=1;exitDx=0;exitDy=0;" parent="1" source="KCtc0PyfG8HMJlSSVIlV-281" target="KCtc0PyfG8HMJlSSVIlV-339" edge="1">
          <mxGeometry relative="1" as="geometry">
            <mxPoint x="1236.4999999999973" y="1193.97" as="sourcePoint" />
          </mxGeometry>
        </mxCell>
        <mxCell id="KCtc0PyfG8HMJlSSVIlV-310" style="edgeStyle=none;rounded=0;orthogonalLoop=1;jettySize=auto;html=1;entryX=0;entryY=0.5;entryDx=0;entryDy=0;endArrow=none;endFill=0;exitX=0.5;exitY=1;exitDx=0;exitDy=0;" parent="1" source="KCtc0PyfG8HMJlSSVIlV-281" target="KCtc0PyfG8HMJlSSVIlV-340" edge="1">
          <mxGeometry relative="1" as="geometry">
            <mxPoint x="1236.4999999999973" y="1193.97" as="sourcePoint" />
          </mxGeometry>
        </mxCell>
        <mxCell id="KCtc0PyfG8HMJlSSVIlV-311" style="edgeStyle=none;rounded=0;orthogonalLoop=1;jettySize=auto;html=1;entryX=0.5;entryY=0;entryDx=0;entryDy=0;endArrow=none;endFill=0;exitX=1;exitY=0.5;exitDx=0;exitDy=0;" parent="1" source="KCtc0PyfG8HMJlSSVIlV-281" target="KCtc0PyfG8HMJlSSVIlV-352" edge="1">
          <mxGeometry relative="1" as="geometry">
            <mxPoint x="1236.4999999999973" y="1244.3700000000001" as="sourcePoint" />
          </mxGeometry>
        </mxCell>
        <mxCell id="KCtc0PyfG8HMJlSSVIlV-312" style="edgeStyle=none;rounded=0;orthogonalLoop=1;jettySize=auto;html=1;entryX=0.5;entryY=0;entryDx=0;entryDy=0;endArrow=none;endFill=0;exitX=1;exitY=0.5;exitDx=0;exitDy=0;" parent="1" source="KCtc0PyfG8HMJlSSVIlV-281" target="KCtc0PyfG8HMJlSSVIlV-353" edge="1">
          <mxGeometry relative="1" as="geometry">
            <mxPoint x="1236.4999999999973" y="1244.3700000000001" as="sourcePoint" />
          </mxGeometry>
        </mxCell>
        <mxCell id="KCtc0PyfG8HMJlSSVIlV-313" style="edgeStyle=none;rounded=0;orthogonalLoop=1;jettySize=auto;html=1;entryX=0.5;entryY=1;entryDx=0;entryDy=0;endArrow=none;endFill=0;exitX=0.5;exitY=0;exitDx=0;exitDy=0;" parent="1" source="KCtc0PyfG8HMJlSSVIlV-281" target="KCtc0PyfG8HMJlSSVIlV-325" edge="1">
          <mxGeometry relative="1" as="geometry">
            <mxPoint x="1160.5" y="989.97" as="sourcePoint" />
          </mxGeometry>
        </mxCell>
        <mxCell id="KCtc0PyfG8HMJlSSVIlV-314" style="edgeStyle=none;rounded=0;orthogonalLoop=1;jettySize=auto;html=1;entryX=0.5;entryY=1;entryDx=0;entryDy=0;endArrow=none;endFill=0;exitX=0.5;exitY=0;exitDx=0;exitDy=0;" parent="1" source="KCtc0PyfG8HMJlSSVIlV-281" target="KCtc0PyfG8HMJlSSVIlV-326" edge="1">
          <mxGeometry relative="1" as="geometry">
            <mxPoint x="1160.5" y="989.97" as="sourcePoint" />
          </mxGeometry>
        </mxCell>
        <mxCell id="KCtc0PyfG8HMJlSSVIlV-315" style="edgeStyle=none;rounded=0;orthogonalLoop=1;jettySize=auto;html=1;entryX=0.5;entryY=1;entryDx=0;entryDy=0;endArrow=none;endFill=0;exitX=0.5;exitY=0;exitDx=0;exitDy=0;" parent="1" source="KCtc0PyfG8HMJlSSVIlV-281" target="KCtc0PyfG8HMJlSSVIlV-327" edge="1">
          <mxGeometry relative="1" as="geometry">
            <mxPoint x="1160.5" y="989.97" as="sourcePoint" />
          </mxGeometry>
        </mxCell>
        <mxCell id="KCtc0PyfG8HMJlSSVIlV-316" style="edgeStyle=none;rounded=0;orthogonalLoop=1;jettySize=auto;html=1;entryX=0.5;entryY=1;entryDx=0;entryDy=0;endArrow=none;endFill=0;exitX=0.5;exitY=0;exitDx=0;exitDy=0;" parent="1" source="KCtc0PyfG8HMJlSSVIlV-281" target="KCtc0PyfG8HMJlSSVIlV-328" edge="1">
          <mxGeometry relative="1" as="geometry">
            <mxPoint x="1160.5" y="989.97" as="sourcePoint" />
          </mxGeometry>
        </mxCell>
        <mxCell id="KCtc0PyfG8HMJlSSVIlV-317" style="edgeStyle=none;rounded=0;orthogonalLoop=1;jettySize=auto;html=1;entryX=0.437;entryY=0.972;entryDx=0;entryDy=0;entryPerimeter=0;endArrow=none;endFill=0;exitX=0.5;exitY=0;exitDx=0;exitDy=0;" parent="1" source="KCtc0PyfG8HMJlSSVIlV-281" target="KCtc0PyfG8HMJlSSVIlV-329" edge="1">
          <mxGeometry relative="1" as="geometry">
            <mxPoint x="1160.5" y="989.97" as="sourcePoint" />
          </mxGeometry>
        </mxCell>
        <mxCell id="KCtc0PyfG8HMJlSSVIlV-318" style="edgeStyle=none;rounded=0;orthogonalLoop=1;jettySize=auto;html=1;entryX=0.5;entryY=1;entryDx=0;entryDy=0;endArrow=none;endFill=0;exitX=0.5;exitY=0;exitDx=0;exitDy=0;" parent="1" source="KCtc0PyfG8HMJlSSVIlV-281" target="KCtc0PyfG8HMJlSSVIlV-330" edge="1">
          <mxGeometry relative="1" as="geometry">
            <mxPoint x="1160.5" y="989.97" as="sourcePoint" />
          </mxGeometry>
        </mxCell>
        <mxCell id="KCtc0PyfG8HMJlSSVIlV-319" style="edgeStyle=none;rounded=0;orthogonalLoop=1;jettySize=auto;html=1;entryX=0.5;entryY=1;entryDx=0;entryDy=0;endArrow=none;endFill=0;exitX=0.5;exitY=0;exitDx=0;exitDy=0;" parent="1" source="KCtc0PyfG8HMJlSSVIlV-281" target="KCtc0PyfG8HMJlSSVIlV-331" edge="1">
          <mxGeometry relative="1" as="geometry">
            <mxPoint x="1160.5" y="989.97" as="sourcePoint" />
          </mxGeometry>
        </mxCell>
        <mxCell id="KCtc0PyfG8HMJlSSVIlV-320" style="edgeStyle=none;rounded=0;orthogonalLoop=1;jettySize=auto;html=1;entryX=0.5;entryY=1;entryDx=0;entryDy=0;endArrow=none;endFill=0;exitX=1;exitY=0.5;exitDx=0;exitDy=0;" parent="1" source="KCtc0PyfG8HMJlSSVIlV-281" target="KCtc0PyfG8HMJlSSVIlV-341" edge="1">
          <mxGeometry relative="1" as="geometry">
            <mxPoint x="1237.2499999999973" y="1071.67" as="sourcePoint" />
          </mxGeometry>
        </mxCell>
        <mxCell id="KCtc0PyfG8HMJlSSVIlV-321" style="edgeStyle=none;rounded=0;orthogonalLoop=1;jettySize=auto;html=1;entryX=0.5;entryY=1;entryDx=0;entryDy=0;endArrow=none;endFill=0;exitX=1;exitY=0.5;exitDx=0;exitDy=0;" parent="1" source="KCtc0PyfG8HMJlSSVIlV-281" target="KCtc0PyfG8HMJlSSVIlV-342" edge="1">
          <mxGeometry relative="1" as="geometry">
            <mxPoint x="1237.2499999999973" y="1071.67" as="sourcePoint" />
          </mxGeometry>
        </mxCell>
        <mxCell id="KCtc0PyfG8HMJlSSVIlV-322" style="edgeStyle=none;rounded=0;orthogonalLoop=1;jettySize=auto;html=1;entryX=0.5;entryY=1;entryDx=0;entryDy=0;endArrow=none;endFill=0;exitX=1;exitY=0.5;exitDx=0;exitDy=0;" parent="1" source="KCtc0PyfG8HMJlSSVIlV-281" target="KCtc0PyfG8HMJlSSVIlV-343" edge="1">
          <mxGeometry relative="1" as="geometry">
            <mxPoint x="1237.2499999999973" y="1071.67" as="sourcePoint" />
          </mxGeometry>
        </mxCell>
        <mxCell id="KCtc0PyfG8HMJlSSVIlV-323" style="edgeStyle=none;rounded=0;orthogonalLoop=1;jettySize=auto;html=1;endArrow=none;endFill=0;entryX=0.5;entryY=0;entryDx=0;entryDy=0;exitX=0.5;exitY=1;exitDx=0;exitDy=0;" parent="1" source="KCtc0PyfG8HMJlSSVIlV-324" target="KCtc0PyfG8HMJlSSVIlV-281" edge="1">
          <mxGeometry relative="1" as="geometry">
            <mxPoint x="942.06" y="1164.3700000000001" as="targetPoint" />
          </mxGeometry>
        </mxCell>
        <mxCell id="KCtc0PyfG8HMJlSSVIlV-324" value="teamName" style="ellipse;whiteSpace=wrap;html=1;fontFamily=Open Sans;fontSource=https%3A%2F%2Ffonts.googleapis.com%2Fcss%3Ffamily%3DOpen%2BSans;fillColor=#1EA5A5;" parent="1" vertex="1">
          <mxGeometry x="690" y="1010" width="80" height="40" as="geometry" />
        </mxCell>
        <mxCell id="KCtc0PyfG8HMJlSSVIlV-325" value="gamesAppearences" style="ellipse;whiteSpace=wrap;html=1;fillColor=#1EA5A5;fontFamily=Open Sans;fontSource=https%3A%2F%2Ffonts.googleapis.com%2Fcss%3Ffamily%3DOpen%2BSans;" parent="1" vertex="1">
          <mxGeometry x="1070" y="1010" width="124" height="40" as="geometry" />
        </mxCell>
        <mxCell id="KCtc0PyfG8HMJlSSVIlV-326" value="gamesLineups" style="ellipse;whiteSpace=wrap;html=1;fillColor=#1EA5A5;fontFamily=Open Sans;fontSource=https%3A%2F%2Ffonts.googleapis.com%2Fcss%3Ffamily%3DOpen%2BSans;" parent="1" vertex="1">
          <mxGeometry x="1204" y="1010" width="89.5" height="40" as="geometry" />
        </mxCell>
        <mxCell id="KCtc0PyfG8HMJlSSVIlV-327" value="gamesMinutes" style="ellipse;whiteSpace=wrap;html=1;fillColor=#1EA5A5;fontFamily=Open Sans;fontSource=https%3A%2F%2Ffonts.googleapis.com%2Fcss%3Ffamily%3DOpen%2BSans;" parent="1" vertex="1">
          <mxGeometry x="1300" y="1010" width="90" height="40" as="geometry" />
        </mxCell>
        <mxCell id="KCtc0PyfG8HMJlSSVIlV-328" value="gamesNumber" style="ellipse;whiteSpace=wrap;html=1;fillColor=#1EA5A5;fontFamily=Open Sans;fontSource=https%3A%2F%2Ffonts.googleapis.com%2Fcss%3Ffamily%3DOpen%2BSans;" parent="1" vertex="1">
          <mxGeometry x="1397" y="1010" width="90.5" height="40" as="geometry" />
        </mxCell>
        <mxCell id="KCtc0PyfG8HMJlSSVIlV-329" value="gamesPosition" style="ellipse;whiteSpace=wrap;html=1;fillColor=#1EA5A5;fontFamily=Open Sans;fontSource=https%3A%2F%2Ffonts.googleapis.com%2Fcss%3Ffamily%3DOpen%2BSans;" parent="1" vertex="1">
          <mxGeometry x="1494" y="1010" width="87.5" height="40" as="geometry" />
        </mxCell>
        <mxCell id="KCtc0PyfG8HMJlSSVIlV-330" value="gamesRating" style="ellipse;whiteSpace=wrap;html=1;fillColor=#1EA5A5;fontFamily=Open Sans;fontSource=https%3A%2F%2Ffonts.googleapis.com%2Fcss%3Ffamily%3DOpen%2BSans;" parent="1" vertex="1">
          <mxGeometry x="1691" y="1010" width="80" height="40" as="geometry" />
        </mxCell>
        <mxCell id="KCtc0PyfG8HMJlSSVIlV-331" value="gamesCaptain" style="ellipse;whiteSpace=wrap;html=1;fillColor=#1EA5A5;fontFamily=Open Sans;fontSource=https%3A%2F%2Ffonts.googleapis.com%2Fcss%3Ffamily%3DOpen%2BSans;" parent="1" vertex="1">
          <mxGeometry x="1587" y="1010" width="94.5" height="40" as="geometry" />
        </mxCell>
        <mxCell id="KCtc0PyfG8HMJlSSVIlV-332" value="goalsTotal" style="ellipse;whiteSpace=wrap;html=1;fillColor=#1EA5A5;fontFamily=Open Sans;fontSource=https%3A%2F%2Ffonts.googleapis.com%2Fcss%3Ffamily%3DOpen%2BSans;" parent="1" vertex="1">
          <mxGeometry x="1296" y="1139.5600000000002" width="72" height="30" as="geometry" />
        </mxCell>
        <mxCell id="KCtc0PyfG8HMJlSSVIlV-333" value="goalsConceded" style="ellipse;whiteSpace=wrap;html=1;fillColor=#1EA5A5;fontFamily=Open Sans;fontSource=https%3A%2F%2Ffonts.googleapis.com%2Fcss%3Ffamily%3DOpen%2BSans;" parent="1" vertex="1">
          <mxGeometry x="1377.5" y="1139.5600000000002" width="99.25" height="30" as="geometry" />
        </mxCell>
        <mxCell id="KCtc0PyfG8HMJlSSVIlV-334" value="goalsAssists" style="ellipse;whiteSpace=wrap;html=1;fillColor=#1EA5A5;fontFamily=Open Sans;fontSource=https%3A%2F%2Ffonts.googleapis.com%2Fcss%3Ffamily%3DOpen%2BSans;" parent="1" vertex="1">
          <mxGeometry x="1478.5" y="1139.5600000000002" width="85" height="30" as="geometry" />
        </mxCell>
        <mxCell id="KCtc0PyfG8HMJlSSVIlV-335" value="goalsSaves" style="ellipse;whiteSpace=wrap;html=1;fillColor=#1EA5A5;fontFamily=Open Sans;fontSource=https%3A%2F%2Ffonts.googleapis.com%2Fcss%3Ffamily%3DOpen%2BSans;" parent="1" vertex="1">
          <mxGeometry x="1573.5" y="1139.5600000000002" width="84.5" height="30" as="geometry" />
        </mxCell>
        <mxCell id="KCtc0PyfG8HMJlSSVIlV-336" value="substitutesIn" style="ellipse;whiteSpace=wrap;html=1;fontFamily=Open Sans;fontSource=https%3A%2F%2Ffonts.googleapis.com%2Fcss%3Ffamily%3DOpen%2BSans;fillColor=#1EA5A5;flipV=0;" parent="1" vertex="1">
          <mxGeometry x="872.69" y="1518.5" width="80" height="40" as="geometry" />
        </mxCell>
        <mxCell id="KCtc0PyfG8HMJlSSVIlV-337" value="substitutesOut" style="ellipse;whiteSpace=wrap;html=1;fontFamily=Open Sans;fontSource=https%3A%2F%2Ffonts.googleapis.com%2Fcss%3Ffamily%3DOpen%2BSans;fillColor=#1EA5A5;flipV=0;" parent="1" vertex="1">
          <mxGeometry x="852.69" y="1566.5" width="100" height="40" as="geometry" />
        </mxCell>
        <mxCell id="KCtc0PyfG8HMJlSSVIlV-338" value="substitutesBench" style="ellipse;whiteSpace=wrap;html=1;fontFamily=Open Sans;fontSource=https%3A%2F%2Ffonts.googleapis.com%2Fcss%3Ffamily%3DOpen%2BSans;fillColor=#1EA5A5;flipV=0;" parent="1" vertex="1">
          <mxGeometry x="852.69" y="1614.53" width="100" height="40" as="geometry" />
        </mxCell>
        <mxCell id="KCtc0PyfG8HMJlSSVIlV-339" value="shotsTotal" style="ellipse;whiteSpace=wrap;html=1;fontFamily=Open Sans;fontSource=https%3A%2F%2Ffonts.googleapis.com%2Fcss%3Ffamily%3DOpen%2BSans;fillColor=#1EA5A5;" parent="1" vertex="1">
          <mxGeometry x="1045.5" y="1518.53" width="80" height="40" as="geometry" />
        </mxCell>
        <mxCell id="KCtc0PyfG8HMJlSSVIlV-340" value="shotsOn" style="ellipse;whiteSpace=wrap;html=1;fontFamily=Open Sans;fontSource=https%3A%2F%2Ffonts.googleapis.com%2Fcss%3Ffamily%3DOpen%2BSans;fillColor=#1EA5A5;" parent="1" vertex="1">
          <mxGeometry x="1045.5" y="1566.53" width="80" height="40" as="geometry" />
        </mxCell>
        <mxCell id="KCtc0PyfG8HMJlSSVIlV-341" value="tacklesTotal" style="ellipse;whiteSpace=wrap;html=1;fillColor=#1EA5A5;fontFamily=Open Sans;fontSource=https%3A%2F%2Ffonts.googleapis.com%2Fcss%3Ffamily%3DOpen%2BSans;" parent="1" vertex="1">
          <mxGeometry x="1674.5" y="1139.5600000000002" width="72" height="30" as="geometry" />
        </mxCell>
        <mxCell id="KCtc0PyfG8HMJlSSVIlV-342" value="tacklesBlocks" style="ellipse;whiteSpace=wrap;html=1;fillColor=#1EA5A5;fontFamily=Open Sans;fontSource=https%3A%2F%2Ffonts.googleapis.com%2Fcss%3Ffamily%3DOpen%2BSans;" parent="1" vertex="1">
          <mxGeometry x="1752.5" y="1139.5600000000002" width="82" height="30" as="geometry" />
        </mxCell>
        <mxCell id="KCtc0PyfG8HMJlSSVIlV-343" value="tacklesInterceptions" style="ellipse;whiteSpace=wrap;html=1;fillColor=#1EA5A5;fontFamily=Open Sans;fontSource=https%3A%2F%2Ffonts.googleapis.com%2Fcss%3Ffamily%3DOpen%2BSans;" parent="1" vertex="1">
          <mxGeometry x="1837.5" y="1139.5600000000002" width="125" height="30" as="geometry" />
        </mxCell>
        <mxCell id="KCtc0PyfG8HMJlSSVIlV-344" value="duelsTotal" style="ellipse;whiteSpace=wrap;html=1;fontFamily=Open Sans;fontSource=https%3A%2F%2Ffonts.googleapis.com%2Fcss%3Ffamily%3DOpen%2BSans;fillColor=#1EA5A5;" parent="1" vertex="1">
          <mxGeometry x="1045.5" y="1327.53" width="80" height="40" as="geometry" />
        </mxCell>
        <mxCell id="KCtc0PyfG8HMJlSSVIlV-345" value="duelsWon" style="ellipse;whiteSpace=wrap;html=1;fontFamily=Open Sans;fontSource=https%3A%2F%2Ffonts.googleapis.com%2Fcss%3Ffamily%3DOpen%2BSans;fillColor=#1EA5A5;" parent="1" vertex="1">
          <mxGeometry x="1045.5" y="1279.5" width="80" height="40" as="geometry" />
        </mxCell>
        <mxCell id="KCtc0PyfG8HMJlSSVIlV-346" value="dribblesAttempts" style="ellipse;whiteSpace=wrap;html=1;fontFamily=Open Sans;fontSource=https%3A%2F%2Ffonts.googleapis.com%2Fcss%3Ffamily%3DOpen%2BSans;fillColor=#1EA5A5;" parent="1" vertex="1">
          <mxGeometry x="1045.5" y="1614.53" width="100" height="40" as="geometry" />
        </mxCell>
        <mxCell id="KCtc0PyfG8HMJlSSVIlV-347" value="dribblesSuccess" style="ellipse;whiteSpace=wrap;html=1;fontFamily=Open Sans;fontSource=https%3A%2F%2Ffonts.googleapis.com%2Fcss%3Ffamily%3DOpen%2BSans;fillColor=#1EA5A5;" parent="1" vertex="1">
          <mxGeometry x="1045.5" y="1662.53" width="100" height="40" as="geometry" />
        </mxCell>
        <mxCell id="KCtc0PyfG8HMJlSSVIlV-348" value="dribblesPast" style="ellipse;whiteSpace=wrap;html=1;fontFamily=Open Sans;fontSource=https%3A%2F%2Ffonts.googleapis.com%2Fcss%3Ffamily%3DOpen%2BSans;fillColor=#1EA5A5;" parent="1" vertex="1">
          <mxGeometry x="1045.5" y="1710.53" width="80" height="40" as="geometry" />
        </mxCell>
        <mxCell id="KCtc0PyfG8HMJlSSVIlV-349" value="passesTotal" style="ellipse;whiteSpace=wrap;html=1;fillColor=#1EA5A5;fontFamily=Open Sans;fontSource=https%3A%2F%2Ffonts.googleapis.com%2Fcss%3Ffamily%3DOpen%2BSans;" parent="1" vertex="1">
          <mxGeometry x="1486" y="1238.37" width="70.5" height="30" as="geometry" />
        </mxCell>
        <mxCell id="KCtc0PyfG8HMJlSSVIlV-350" value="passesKey" style="ellipse;whiteSpace=wrap;html=1;fillColor=#1EA5A5;fontFamily=Open Sans;fontSource=https%3A%2F%2Ffonts.googleapis.com%2Fcss%3Ffamily%3DOpen%2BSans;" parent="1" vertex="1">
          <mxGeometry x="1407.25" y="1238.37" width="68.75" height="30" as="geometry" />
        </mxCell>
        <mxCell id="KCtc0PyfG8HMJlSSVIlV-351" value="passesAccuracy" style="ellipse;whiteSpace=wrap;html=1;fillColor=#1EA5A5;fontFamily=Open Sans;fontSource=https%3A%2F%2Ffonts.googleapis.com%2Fcss%3Ffamily%3DOpen%2BSans;" parent="1" vertex="1">
          <mxGeometry x="1570.5" y="1238.37" width="112" height="30" as="geometry" />
        </mxCell>
        <mxCell id="KCtc0PyfG8HMJlSSVIlV-352" value="foulsDrawn" style="ellipse;whiteSpace=wrap;html=1;fillColor=#1EA5A5;fontFamily=Open Sans;fontSource=https%3A%2F%2Ffonts.googleapis.com%2Fcss%3Ffamily%3DOpen%2BSans;" parent="1" vertex="1">
          <mxGeometry x="1214.13" y="1238.37" width="70" height="30" as="geometry" />
        </mxCell>
        <mxCell id="KCtc0PyfG8HMJlSSVIlV-353" value="foulsCommitted" style="ellipse;whiteSpace=wrap;html=1;fillColor=#1EA5A5;fontFamily=Open Sans;fontSource=https%3A%2F%2Ffonts.googleapis.com%2Fcss%3Ffamily%3DOpen%2BSans;" parent="1" vertex="1">
          <mxGeometry x="1296" y="1238.37" width="99" height="30" as="geometry" />
        </mxCell>
        <mxCell id="KCtc0PyfG8HMJlSSVIlV-354" value="penaltyWon" style="ellipse;whiteSpace=wrap;html=1;fontFamily=Open Sans;fontSource=https%3A%2F%2Ffonts.googleapis.com%2Fcss%3Ffamily%3DOpen%2BSans;fillColor=#1EA5A5;flipV=0;" parent="1" vertex="1">
          <mxGeometry x="872.69" y="1279.5" width="80" height="40" as="geometry" />
        </mxCell>
        <mxCell id="KCtc0PyfG8HMJlSSVIlV-355" value="penaltyCommited" style="ellipse;whiteSpace=wrap;html=1;fontFamily=Open Sans;fontSource=https%3A%2F%2Ffonts.googleapis.com%2Fcss%3Ffamily%3DOpen%2BSans;fillColor=#1EA5A5;flipV=0;" parent="1" vertex="1">
          <mxGeometry x="840" y="1327.5" width="112.69" height="40" as="geometry" />
        </mxCell>
        <mxCell id="KCtc0PyfG8HMJlSSVIlV-356" value="penaltyScored" style="ellipse;whiteSpace=wrap;html=1;fontFamily=Open Sans;fontSource=https%3A%2F%2Ffonts.googleapis.com%2Fcss%3Ffamily%3DOpen%2BSans;fillColor=#1EA5A5;flipV=0;" parent="1" vertex="1">
          <mxGeometry x="852.69" y="1375.5" width="100" height="40" as="geometry" />
        </mxCell>
        <mxCell id="KCtc0PyfG8HMJlSSVIlV-357" value="penaltyMissed" style="ellipse;whiteSpace=wrap;html=1;fontFamily=Open Sans;fontSource=https%3A%2F%2Ffonts.googleapis.com%2Fcss%3Ffamily%3DOpen%2BSans;fillColor=#1EA5A5;flipV=0;" parent="1" vertex="1">
          <mxGeometry x="852.69" y="1423.5" width="100" height="40" as="geometry" />
        </mxCell>
        <mxCell id="KCtc0PyfG8HMJlSSVIlV-358" value="penaltySaved" style="ellipse;whiteSpace=wrap;html=1;fontFamily=Open Sans;fontSource=https%3A%2F%2Ffonts.googleapis.com%2Fcss%3Ffamily%3DOpen%2BSans;fillColor=#1EA5A5;flipV=0;" parent="1" vertex="1">
          <mxGeometry x="872.69" y="1470.5" width="80" height="40" as="geometry" />
        </mxCell>
        <mxCell id="KCtc0PyfG8HMJlSSVIlV-359" value="cardYellow" style="ellipse;whiteSpace=wrap;html=1;fontFamily=Open Sans;fontSource=https%3A%2F%2Ffonts.googleapis.com%2Fcss%3Ffamily%3DOpen%2BSans;fillColor=#1EA5A5;" parent="1" vertex="1">
          <mxGeometry x="1045.5" y="1375.53" width="80" height="40" as="geometry" />
        </mxCell>
        <mxCell id="KCtc0PyfG8HMJlSSVIlV-360" value="cardYellowred" style="ellipse;whiteSpace=wrap;html=1;fontFamily=Open Sans;fontSource=https%3A%2F%2Ffonts.googleapis.com%2Fcss%3Ffamily%3DOpen%2BSans;fillColor=#1EA5A5;" parent="1" vertex="1">
          <mxGeometry x="1045.5" y="1471.53" width="100" height="40" as="geometry" />
        </mxCell>
        <mxCell id="KCtc0PyfG8HMJlSSVIlV-361" value="cardRed" style="ellipse;whiteSpace=wrap;html=1;fontFamily=Open Sans;fontSource=https%3A%2F%2Ffonts.googleapis.com%2Fcss%3Ffamily%3DOpen%2BSans;fillColor=#1EA5A5;" parent="1" vertex="1">
          <mxGeometry x="1045.5" y="1423.53" width="80" height="40" as="geometry" />
        </mxCell>
        <mxCell id="KCtc0PyfG8HMJlSSVIlV-370" style="edgeStyle=none;rounded=0;orthogonalLoop=1;jettySize=auto;html=1;entryX=0.5;entryY=0;entryDx=0;entryDy=0;fontFamily=Open Sans;fontSource=https%3A%2F%2Ffonts.googleapis.com%2Fcss%3Ffamily%3DOpen%2BSans;fontSize=12;endArrow=none;endFill=0;" parent="1" source="KCtc0PyfG8HMJlSSVIlV-364" target="KCtc0PyfG8HMJlSSVIlV-281" edge="1">
          <mxGeometry relative="1" as="geometry" />
        </mxCell>
        <mxCell id="KCtc0PyfG8HMJlSSVIlV-364" value="&lt;div&gt;&lt;u&gt;playerID&lt;/u&gt;&lt;/div&gt;" style="ellipse;whiteSpace=wrap;html=1;fontFamily=Open Sans;fontSource=https%3A%2F%2Ffonts.googleapis.com%2Fcss%3Ffamily%3DOpen%2BSans;fillColor=#1EA5A5;" parent="1" vertex="1">
          <mxGeometry x="872.69" y="1010" width="80" height="40" as="geometry" />
        </mxCell>
        <mxCell id="KCtc0PyfG8HMJlSSVIlV-382" value="(0, 1)" style="edgeStyle=none;rounded=0;orthogonalLoop=1;jettySize=auto;html=1;entryX=0;entryY=0.5;entryDx=0;entryDy=0;fontFamily=Open Sans;fontSource=https%3A%2F%2Ffonts.googleapis.com%2Fcss%3Ffamily%3DOpen%2BSans;fontSize=12;endArrow=none;endFill=0;" parent="1" source="KCtc0PyfG8HMJlSSVIlV-23" target="KCtc0PyfG8HMJlSSVIlV-380" edge="1">
          <mxGeometry relative="1" as="geometry" />
        </mxCell>
        <mxCell id="KCtc0PyfG8HMJlSSVIlV-23" value="&lt;font data-font-src=&quot;https://fonts.googleapis.com/css?family=Open+Sans&quot; face=&quot;Open Sans&quot;&gt;&lt;b&gt;Card&lt;/b&gt;&lt;/font&gt;" style="rounded=0;whiteSpace=wrap;html=1;fillColor=#a5d7d2;" parent="1" vertex="1">
          <mxGeometry x="1130" y="467" width="120" height="40" as="geometry" />
        </mxCell>
        <mxCell id="KCtc0PyfG8HMJlSSVIlV-24" style="edgeStyle=none;rounded=0;orthogonalLoop=1;jettySize=auto;html=1;startArrow=none;startFill=0;endArrow=none;endFill=0;exitX=1;exitY=0.5;exitDx=0;exitDy=0;entryX=0;entryY=0.5;entryDx=0;entryDy=0;" parent="1" source="KCtc0PyfG8HMJlSSVIlV-25" target="KCtc0PyfG8HMJlSSVIlV-23" edge="1">
          <mxGeometry relative="1" as="geometry" />
        </mxCell>
        <mxCell id="KCtc0PyfG8HMJlSSVIlV-25" value="&lt;font data-font-src=&quot;https://fonts.googleapis.com/css?family=Open+Sans&quot; face=&quot;Open Sans&quot;&gt;&lt;u&gt;assetId&lt;/u&gt;&lt;/font&gt;" style="ellipse;whiteSpace=wrap;html=1;fillColor=#1EA5A5;" parent="1" vertex="1">
          <mxGeometry x="960" y="280" width="80" height="40" as="geometry" />
        </mxCell>
        <mxCell id="KCtc0PyfG8HMJlSSVIlV-26" style="edgeStyle=none;rounded=0;orthogonalLoop=1;jettySize=auto;html=1;startArrow=none;startFill=0;endArrow=none;endFill=0;exitX=1;exitY=0.5;exitDx=0;exitDy=0;entryX=0;entryY=0.5;entryDx=0;entryDy=0;" parent="1" source="KCtc0PyfG8HMJlSSVIlV-27" target="KCtc0PyfG8HMJlSSVIlV-23" edge="1">
          <mxGeometry relative="1" as="geometry" />
        </mxCell>
        <mxCell id="KCtc0PyfG8HMJlSSVIlV-27" value="&lt;font data-font-src=&quot;https://fonts.googleapis.com/css?family=Open+Sans&quot; face=&quot;Open Sans&quot;&gt;rarity&lt;/font&gt;" style="ellipse;whiteSpace=wrap;html=1;fillColor=#1EA5A5;" parent="1" vertex="1">
          <mxGeometry x="960" y="335" width="80" height="40" as="geometry" />
        </mxCell>
        <mxCell id="KCtc0PyfG8HMJlSSVIlV-28" style="edgeStyle=none;rounded=0;orthogonalLoop=1;jettySize=auto;html=1;startArrow=none;startFill=0;endArrow=none;endFill=0;exitX=1;exitY=0.5;exitDx=0;exitDy=0;entryX=0;entryY=0.5;entryDx=0;entryDy=0;" parent="1" source="KCtc0PyfG8HMJlSSVIlV-29" target="KCtc0PyfG8HMJlSSVIlV-23" edge="1">
          <mxGeometry relative="1" as="geometry" />
        </mxCell>
        <mxCell id="KCtc0PyfG8HMJlSSVIlV-29" value="seasonYear" style="ellipse;whiteSpace=wrap;html=1;fillColor=#1EA5A5;" parent="1" vertex="1">
          <mxGeometry x="960" y="391" width="80" height="40" as="geometry" />
        </mxCell>
        <mxCell id="KCtc0PyfG8HMJlSSVIlV-30" style="edgeStyle=none;rounded=0;orthogonalLoop=1;jettySize=auto;html=1;startArrow=none;startFill=0;endArrow=none;endFill=0;exitX=1;exitY=0.5;exitDx=0;exitDy=0;entryX=0;entryY=0.5;entryDx=0;entryDy=0;" parent="1" source="KCtc0PyfG8HMJlSSVIlV-31" target="KCtc0PyfG8HMJlSSVIlV-23" edge="1">
          <mxGeometry relative="1" as="geometry" />
        </mxCell>
        <mxCell id="KCtc0PyfG8HMJlSSVIlV-31" value="&lt;font data-font-src=&quot;https://fonts.googleapis.com/css?family=Open+Sans&quot; face=&quot;Open Sans&quot;&gt;lastname&lt;/font&gt;" style="ellipse;whiteSpace=wrap;html=1;fillColor=#1EA5A5;" parent="1" vertex="1">
          <mxGeometry x="960" y="613" width="80" height="40" as="geometry" />
        </mxCell>
        <mxCell id="KCtc0PyfG8HMJlSSVIlV-32" style="edgeStyle=none;rounded=0;orthogonalLoop=1;jettySize=auto;html=1;startArrow=none;startFill=0;endArrow=none;endFill=0;exitX=1;exitY=0.5;exitDx=0;exitDy=0;entryX=0;entryY=0.5;entryDx=0;entryDy=0;" parent="1" source="KCtc0PyfG8HMJlSSVIlV-33" target="KCtc0PyfG8HMJlSSVIlV-23" edge="1">
          <mxGeometry relative="1" as="geometry" />
        </mxCell>
        <mxCell id="KCtc0PyfG8HMJlSSVIlV-33" value="&lt;font data-font-src=&quot;https://fonts.googleapis.com/css?family=Open+Sans&quot; face=&quot;Open Sans&quot;&gt;birthDate&lt;/font&gt;" style="ellipse;whiteSpace=wrap;html=1;fillColor=#1EA5A5;" parent="1" vertex="1">
          <mxGeometry x="960" y="446" width="80" height="40" as="geometry" />
        </mxCell>
        <mxCell id="KCtc0PyfG8HMJlSSVIlV-34" style="edgeStyle=none;rounded=0;orthogonalLoop=1;jettySize=auto;html=1;startArrow=none;startFill=0;endArrow=none;endFill=0;exitX=1;exitY=0.5;exitDx=0;exitDy=0;entryX=0;entryY=0.5;entryDx=0;entryDy=0;" parent="1" source="KCtc0PyfG8HMJlSSVIlV-35" target="KCtc0PyfG8HMJlSSVIlV-23" edge="1">
          <mxGeometry relative="1" as="geometry" />
        </mxCell>
        <mxCell id="KCtc0PyfG8HMJlSSVIlV-35" value="&lt;font data-font-src=&quot;https://fonts.googleapis.com/css?family=Open+Sans&quot; face=&quot;Open Sans&quot;&gt;bestfoot&lt;/font&gt;" style="ellipse;whiteSpace=wrap;html=1;fillColor=#1EA5A5;" parent="1" vertex="1">
          <mxGeometry x="960" y="502" width="80" height="40" as="geometry" />
        </mxCell>
        <mxCell id="KCtc0PyfG8HMJlSSVIlV-38" style="edgeStyle=none;rounded=0;orthogonalLoop=1;jettySize=auto;html=1;startArrow=none;startFill=0;endArrow=none;endFill=0;exitX=1;exitY=0.5;exitDx=0;exitDy=0;entryX=0;entryY=0.5;entryDx=0;entryDy=0;" parent="1" source="KCtc0PyfG8HMJlSSVIlV-39" target="KCtc0PyfG8HMJlSSVIlV-23" edge="1">
          <mxGeometry relative="1" as="geometry" />
        </mxCell>
        <mxCell id="KCtc0PyfG8HMJlSSVIlV-39" value="&lt;font data-font-src=&quot;https://fonts.googleapis.com/css?family=Open+Sans&quot; face=&quot;Open Sans&quot;&gt;firstname&lt;/font&gt;" style="ellipse;whiteSpace=wrap;html=1;fillColor=#1EA5A5;" parent="1" vertex="1">
          <mxGeometry x="960" y="557" width="80" height="40" as="geometry" />
        </mxCell>
        <mxCell id="KCtc0PyfG8HMJlSSVIlV-66" style="edgeStyle=none;rounded=0;orthogonalLoop=1;jettySize=auto;html=1;startArrow=none;startFill=0;endArrow=none;endFill=0;exitX=1;exitY=0.5;exitDx=0;exitDy=0;entryX=0;entryY=0.5;entryDx=0;entryDy=0;" parent="1" source="KCtc0PyfG8HMJlSSVIlV-67" target="KCtc0PyfG8HMJlSSVIlV-23" edge="1">
          <mxGeometry relative="1" as="geometry" />
        </mxCell>
        <mxCell id="KCtc0PyfG8HMJlSSVIlV-67" value="&lt;font data-font-src=&quot;https://fonts.googleapis.com/css?family=Open+Sans&quot; face=&quot;Open Sans&quot;&gt;shirtnumber&lt;/font&gt;" style="ellipse;whiteSpace=wrap;html=1;fillColor=#1EA5A5;" parent="1" vertex="1">
          <mxGeometry x="960" y="668" width="80" height="40" as="geometry" />
        </mxCell>
        <mxCell id="KCtc0PyfG8HMJlSSVIlV-377" value="(0, 1)" style="edgeStyle=none;rounded=0;orthogonalLoop=1;jettySize=auto;html=1;entryX=0.5;entryY=1;entryDx=0;entryDy=0;fontFamily=Open Sans;fontSource=https%3A%2F%2Ffonts.googleapis.com%2Fcss%3Ffamily%3DOpen%2BSans;fontSize=12;endArrow=none;endFill=0;" parent="1" source="KCtc0PyfG8HMJlSSVIlV-374" target="KCtc0PyfG8HMJlSSVIlV-23" edge="1">
          <mxGeometry relative="1" as="geometry" />
        </mxCell>
        <mxCell id="KCtc0PyfG8HMJlSSVIlV-374" value="&lt;span style=&quot;font-family: Helvetica;&quot;&gt;possesses&lt;/span&gt;" style="rhombus;whiteSpace=wrap;html=1;fillColor=#A5D7D2;fontFamily=Open Sans;fontSource=https%3A%2F%2Ffonts.googleapis.com%2Fcss%3Ffamily%3DOpen%2BSans;" parent="1" vertex="1">
          <mxGeometry x="1130" y="808.1300000000001" width="120" height="70" as="geometry" />
        </mxCell>
        <mxCell id="KCtc0PyfG8HMJlSSVIlV-375" style="edgeStyle=none;rounded=0;orthogonalLoop=1;jettySize=auto;html=1;exitX=0.75;exitY=1;exitDx=0;exitDy=0;fontFamily=Open Sans;fontSource=https%3A%2F%2Ffonts.googleapis.com%2Fcss%3Ffamily%3DOpen%2BSans;fontSize=12;endArrow=none;endFill=0;" parent="1" source="KCtc0PyfG8HMJlSSVIlV-87" target="KCtc0PyfG8HMJlSSVIlV-87" edge="1">
          <mxGeometry relative="1" as="geometry" />
        </mxCell>
        <mxCell id="KCtc0PyfG8HMJlSSVIlV-260" value="&lt;font data-font-src=&quot;https://fonts.googleapis.com/css?family=Open+Sans&quot; face=&quot;Open Sans&quot;&gt;&lt;u&gt;address&lt;/u&gt;&lt;/font&gt;" style="ellipse;whiteSpace=wrap;html=1;fillColor=#1EA5A5;" parent="1" vertex="1">
          <mxGeometry x="2449.5" y="396" width="80" height="40" as="geometry" />
        </mxCell>
        <mxCell id="KCtc0PyfG8HMJlSSVIlV-261" style="edgeStyle=none;rounded=0;orthogonalLoop=1;jettySize=auto;html=1;entryX=0;entryY=0.5;entryDx=0;entryDy=0;fontFamily=Open Sans;fontSource=https%3A%2F%2Ffonts.googleapis.com%2Fcss%3Ffamily%3DOpen%2BSans;fontSize=17;endArrow=none;endFill=0;exitX=1;exitY=0.5;exitDx=0;exitDy=0;" parent="1" source="KCtc0PyfG8HMJlSSVIlV-379" target="KCtc0PyfG8HMJlSSVIlV-260" edge="1">
          <mxGeometry relative="1" as="geometry">
            <mxPoint x="2390.0000000000005" y="486.0000000000001" as="sourcePoint" />
          </mxGeometry>
        </mxCell>
        <mxCell id="KCtc0PyfG8HMJlSSVIlV-262" value="&lt;font data-font-src=&quot;https://fonts.googleapis.com/css?family=Open+Sans&quot; face=&quot;Open Sans&quot;&gt;&lt;u&gt;transferDate&lt;/u&gt;&lt;/font&gt;" style="ellipse;whiteSpace=wrap;html=1;fillColor=#1EA5A5;" parent="1" vertex="1">
          <mxGeometry x="2449.5" y="446" width="80" height="40" as="geometry" />
        </mxCell>
        <mxCell id="KCtc0PyfG8HMJlSSVIlV-263" style="edgeStyle=none;rounded=0;orthogonalLoop=1;jettySize=auto;html=1;entryX=0;entryY=0.5;entryDx=0;entryDy=0;fontFamily=Open Sans;fontSource=https%3A%2F%2Ffonts.googleapis.com%2Fcss%3Ffamily%3DOpen%2BSans;fontSize=17;endArrow=none;endFill=0;exitX=1;exitY=0.5;exitDx=0;exitDy=0;" parent="1" source="KCtc0PyfG8HMJlSSVIlV-379" target="KCtc0PyfG8HMJlSSVIlV-262" edge="1">
          <mxGeometry relative="1" as="geometry">
            <mxPoint x="2390.0000000000005" y="486.0000000000001" as="sourcePoint" />
          </mxGeometry>
        </mxCell>
        <mxCell id="KCtc0PyfG8HMJlSSVIlV-264" value="&lt;span style=&quot;font-family: &amp;quot;Open Sans&amp;quot;;&quot;&gt;priceEuro&lt;/span&gt;" style="ellipse;whiteSpace=wrap;html=1;fillColor=#1EA5A5;" parent="1" vertex="1">
          <mxGeometry x="2449.5" y="496" width="80" height="40" as="geometry" />
        </mxCell>
        <mxCell id="KCtc0PyfG8HMJlSSVIlV-265" value="&lt;font data-font-src=&quot;https://fonts.googleapis.com/css?family=Open+Sans&quot; face=&quot;Open Sans&quot;&gt;transferType&lt;/font&gt;" style="ellipse;whiteSpace=wrap;html=1;fillColor=#1EA5A5;" parent="1" vertex="1">
          <mxGeometry x="2451.5" y="546" width="80" height="40" as="geometry" />
        </mxCell>
        <mxCell id="KCtc0PyfG8HMJlSSVIlV-266" style="edgeStyle=none;rounded=0;orthogonalLoop=1;jettySize=auto;html=1;entryX=0;entryY=0.5;entryDx=0;entryDy=0;fontFamily=Open Sans;fontSource=https%3A%2F%2Ffonts.googleapis.com%2Fcss%3Ffamily%3DOpen%2BSans;fontSize=17;endArrow=none;endFill=0;exitX=1;exitY=0.5;exitDx=0;exitDy=0;" parent="1" source="KCtc0PyfG8HMJlSSVIlV-379" target="KCtc0PyfG8HMJlSSVIlV-264" edge="1">
          <mxGeometry relative="1" as="geometry">
            <mxPoint x="2390.0000000000005" y="486.0000000000001" as="sourcePoint" />
          </mxGeometry>
        </mxCell>
        <mxCell id="KCtc0PyfG8HMJlSSVIlV-268" value="&lt;font data-font-src=&quot;https://fonts.googleapis.com/css?family=Open+Sans&quot; face=&quot;Open Sans&quot;&gt;blockchain&lt;/font&gt;" style="ellipse;whiteSpace=wrap;html=1;fillColor=#1EA5A5;" parent="1" vertex="1">
          <mxGeometry x="2451.5" y="596" width="80" height="40" as="geometry" />
        </mxCell>
        <mxCell id="KCtc0PyfG8HMJlSSVIlV-270" style="edgeStyle=none;rounded=0;orthogonalLoop=1;jettySize=auto;html=1;entryX=0;entryY=0.5;entryDx=0;entryDy=0;fontFamily=Open Sans;fontSource=https%3A%2F%2Ffonts.googleapis.com%2Fcss%3Ffamily%3DOpen%2BSans;fontSize=17;endArrow=none;endFill=0;exitX=1;exitY=0.5;exitDx=0;exitDy=0;" parent="1" source="KCtc0PyfG8HMJlSSVIlV-379" target="KCtc0PyfG8HMJlSSVIlV-265" edge="1">
          <mxGeometry relative="1" as="geometry">
            <mxPoint x="2390.0000000000005" y="486.0000000000001" as="sourcePoint" />
          </mxGeometry>
        </mxCell>
        <mxCell id="KCtc0PyfG8HMJlSSVIlV-272" style="edgeStyle=none;rounded=0;orthogonalLoop=1;jettySize=auto;html=1;entryX=0;entryY=0.5;entryDx=0;entryDy=0;fontFamily=Open Sans;fontSource=https%3A%2F%2Ffonts.googleapis.com%2Fcss%3Ffamily%3DOpen%2BSans;fontSize=17;endArrow=none;endFill=0;exitX=1;exitY=0.5;exitDx=0;exitDy=0;" parent="1" source="KCtc0PyfG8HMJlSSVIlV-379" target="KCtc0PyfG8HMJlSSVIlV-268" edge="1">
          <mxGeometry relative="1" as="geometry">
            <mxPoint x="2390.0000000000005" y="486.0000000000001" as="sourcePoint" />
          </mxGeometry>
        </mxCell>
        <mxCell id="KCtc0PyfG8HMJlSSVIlV-378" style="edgeStyle=none;rounded=0;orthogonalLoop=1;jettySize=auto;html=1;entryX=0.5;entryY=1;entryDx=0;entryDy=0;fontFamily=Open Sans;fontSource=https%3A%2F%2Ffonts.googleapis.com%2Fcss%3Ffamily%3DOpen%2BSans;fontSize=12;endArrow=none;endFill=0;exitX=0.5;exitY=0;exitDx=0;exitDy=0;" parent="1" source="KCtc0PyfG8HMJlSSVIlV-245" target="KCtc0PyfG8HMJlSSVIlV-258" edge="1">
          <mxGeometry relative="1" as="geometry" />
        </mxCell>
        <mxCell id="KCtc0PyfG8HMJlSSVIlV-384" value="(0, *)" style="edgeStyle=none;rounded=0;orthogonalLoop=1;jettySize=auto;html=1;entryX=0;entryY=0.5;entryDx=0;entryDy=0;fontFamily=Open Sans;fontSource=https%3A%2F%2Ffonts.googleapis.com%2Fcss%3Ffamily%3DOpen%2BSans;fontSize=12;endArrow=none;endFill=0;" parent="1" source="KCtc0PyfG8HMJlSSVIlV-245" target="KCtc0PyfG8HMJlSSVIlV-381" edge="1">
          <mxGeometry relative="1" as="geometry" />
        </mxCell>
        <mxCell id="KCtc0PyfG8HMJlSSVIlV-245" value="&lt;font data-font-src=&quot;https://fonts.googleapis.com/css?family=Open+Sans&quot; face=&quot;Open Sans&quot;&gt;&lt;b&gt;NFT&lt;/b&gt;&lt;/font&gt;" style="rounded=0;whiteSpace=wrap;html=1;fillColor=#a5d7d2;" parent="1" vertex="1">
          <mxGeometry x="1675" y="467" width="120" height="40" as="geometry" />
        </mxCell>
        <mxCell id="KCtc0PyfG8HMJlSSVIlV-246" value="&lt;font data-font-src=&quot;https://fonts.googleapis.com/css?family=Open+Sans&quot; face=&quot;Open Sans&quot;&gt;slug&lt;/font&gt;" style="ellipse;whiteSpace=wrap;html=1;fillColor=#1EA5A5;" parent="1" vertex="1">
          <mxGeometry x="1695" y="377" width="80" height="40" as="geometry" />
        </mxCell>
        <mxCell id="KCtc0PyfG8HMJlSSVIlV-247" style="edgeStyle=none;rounded=0;orthogonalLoop=1;jettySize=auto;html=1;entryX=0.5;entryY=1;entryDx=0;entryDy=0;fontFamily=Open Sans;fontSource=https%3A%2F%2Ffonts.googleapis.com%2Fcss%3Ffamily%3DOpen%2BSans;endArrow=none;endFill=0;exitX=0.5;exitY=0;exitDx=0;exitDy=0;" parent="1" source="KCtc0PyfG8HMJlSSVIlV-245" target="KCtc0PyfG8HMJlSSVIlV-246" edge="1">
          <mxGeometry relative="1" as="geometry" />
        </mxCell>
        <mxCell id="KCtc0PyfG8HMJlSSVIlV-248" value="&lt;font data-font-src=&quot;https://fonts.googleapis.com/css?family=Open+Sans&quot; face=&quot;Open Sans&quot;&gt;owner&lt;/font&gt;" style="ellipse;whiteSpace=wrap;html=1;fillColor=#1EA5A5;" parent="1" vertex="1">
          <mxGeometry x="1782" y="377" width="80" height="40" as="geometry" />
        </mxCell>
        <mxCell id="KCtc0PyfG8HMJlSSVIlV-249" style="edgeStyle=none;rounded=0;orthogonalLoop=1;jettySize=auto;html=1;entryX=0.5;entryY=1;entryDx=0;entryDy=0;fontFamily=Open Sans;fontSource=https%3A%2F%2Ffonts.googleapis.com%2Fcss%3Ffamily%3DOpen%2BSans;endArrow=none;endFill=0;exitX=0.5;exitY=0;exitDx=0;exitDy=0;" parent="1" source="KCtc0PyfG8HMJlSSVIlV-245" target="KCtc0PyfG8HMJlSSVIlV-248" edge="1">
          <mxGeometry relative="1" as="geometry" />
        </mxCell>
        <mxCell id="KCtc0PyfG8HMJlSSVIlV-252" value="&lt;font data-font-src=&quot;https://fonts.googleapis.com/css?family=Open+Sans&quot; face=&quot;Open Sans&quot;&gt;assetID&lt;/font&gt;" style="ellipse;whiteSpace=wrap;html=1;fillColor=#1EA5A5;" parent="1" vertex="1">
          <mxGeometry x="1607" y="377" width="80" height="40" as="geometry" />
        </mxCell>
        <mxCell id="KCtc0PyfG8HMJlSSVIlV-253" style="edgeStyle=none;rounded=0;orthogonalLoop=1;jettySize=auto;html=1;entryX=0.5;entryY=1;entryDx=0;entryDy=0;fontFamily=Open Sans;fontSource=https%3A%2F%2Ffonts.googleapis.com%2Fcss%3Ffamily%3DOpen%2BSans;exitX=0.5;exitY=0;exitDx=0;exitDy=0;endArrow=none;endFill=0;" parent="1" source="KCtc0PyfG8HMJlSSVIlV-245" target="KCtc0PyfG8HMJlSSVIlV-252" edge="1">
          <mxGeometry relative="1" as="geometry" />
        </mxCell>
        <mxCell id="KCtc0PyfG8HMJlSSVIlV-254" value="&lt;u&gt;&lt;font data-font-src=&quot;https://fonts.googleapis.com/css?family=Open+Sans&quot; face=&quot;Open Sans&quot;&gt;nftID&lt;/font&gt;&lt;/u&gt;" style="ellipse;whiteSpace=wrap;html=1;fillColor=#1EA5A5;" parent="1" vertex="1">
          <mxGeometry x="1520" y="377" width="80" height="40" as="geometry" />
        </mxCell>
        <mxCell id="KCtc0PyfG8HMJlSSVIlV-255" style="rounded=0;orthogonalLoop=1;jettySize=auto;html=1;entryX=0.5;entryY=1;entryDx=0;entryDy=0;fontFamily=Open Sans;fontSource=https%3A%2F%2Ffonts.googleapis.com%2Fcss%3Ffamily%3DOpen%2BSans;exitX=0.5;exitY=0;exitDx=0;exitDy=0;endArrow=none;endFill=0;" parent="1" source="KCtc0PyfG8HMJlSSVIlV-245" target="KCtc0PyfG8HMJlSSVIlV-254" edge="1">
          <mxGeometry relative="1" as="geometry" />
        </mxCell>
        <mxCell id="KCtc0PyfG8HMJlSSVIlV-258" value="&lt;font data-font-src=&quot;https://fonts.googleapis.com/css?family=Open+Sans&quot; face=&quot;Open Sans&quot;&gt;currentOwnerAddress&lt;/font&gt;" style="ellipse;whiteSpace=wrap;html=1;fillColor=#1EA5A5;" parent="1" vertex="1">
          <mxGeometry x="1870" y="377" width="155" height="40" as="geometry" />
        </mxCell>
        <mxCell id="KCtc0PyfG8HMJlSSVIlV-379" value="&lt;font data-font-src=&quot;https://fonts.googleapis.com/css?family=Open+Sans&quot; face=&quot;Open Sans&quot;&gt;&lt;b&gt;OwnershipHistory&lt;/b&gt;&lt;/font&gt;" style="rounded=0;whiteSpace=wrap;html=1;fillColor=#a5d7d2;" parent="1" vertex="1">
          <mxGeometry x="2250" y="467" width="120" height="40" as="geometry" />
        </mxCell>
        <mxCell id="KCtc0PyfG8HMJlSSVIlV-383" value="(1, 1)" style="edgeStyle=none;rounded=0;orthogonalLoop=1;jettySize=auto;html=1;entryX=0;entryY=0.5;entryDx=0;entryDy=0;fontFamily=Open Sans;fontSource=https%3A%2F%2Ffonts.googleapis.com%2Fcss%3Ffamily%3DOpen%2BSans;fontSize=12;endArrow=none;endFill=0;" parent="1" source="KCtc0PyfG8HMJlSSVIlV-380" target="KCtc0PyfG8HMJlSSVIlV-245" edge="1">
          <mxGeometry relative="1" as="geometry" />
        </mxCell>
        <mxCell id="KCtc0PyfG8HMJlSSVIlV-380" value="&lt;span style=&quot;font-family: Helvetica;&quot;&gt;representedAs&lt;/span&gt;" style="rhombus;whiteSpace=wrap;html=1;fillColor=#A5D7D2;fontFamily=Open Sans;fontSource=https%3A%2F%2Ffonts.googleapis.com%2Fcss%3Ffamily%3DOpen%2BSans;" parent="1" vertex="1">
          <mxGeometry x="1400" y="452.0000000000001" width="120" height="70" as="geometry" />
        </mxCell>
        <mxCell id="KCtc0PyfG8HMJlSSVIlV-385" value="(1, 1)" style="edgeStyle=none;rounded=0;orthogonalLoop=1;jettySize=auto;html=1;entryX=0;entryY=0.5;entryDx=0;entryDy=0;fontFamily=Open Sans;fontSource=https%3A%2F%2Ffonts.googleapis.com%2Fcss%3Ffamily%3DOpen%2BSans;fontSize=12;endArrow=none;endFill=0;" parent="1" source="KCtc0PyfG8HMJlSSVIlV-381" target="KCtc0PyfG8HMJlSSVIlV-379" edge="1">
          <mxGeometry relative="1" as="geometry" />
        </mxCell>
        <mxCell id="KCtc0PyfG8HMJlSSVIlV-381" value="&lt;span style=&quot;font-family: Helvetica;&quot;&gt;contains&lt;/span&gt;" style="rhombus;whiteSpace=wrap;html=1;fillColor=#A5D7D2;fontFamily=Open Sans;fontSource=https%3A%2F%2Ffonts.googleapis.com%2Fcss%3Ffamily%3DOpen%2BSans;" parent="1" vertex="1">
          <mxGeometry x="1962.5" y="452.0000000000001" width="120" height="70" as="geometry" />
        </mxCell>
      </root>
    </mxGraphModel>
  </diagram>
</mxfile>
